<svg width="20" height="22" viewBox="0 0 20 22" fill="none" xmlns="http://www.w3.org/2000/svg">
<path d="M14.9623 15.9426H14.2097C13.8349 15.9418 13.4703 15.8202 13.1699 15.596L11.6594 14.4631C11.6112 14.427 11.5714 14.3809 11.5425 14.328C11.5137 14.2751 11.4966 14.2166 11.4923 14.1565C11.488 14.0964 11.4967 14.0361 11.5178 13.9796C11.5389 13.9232 11.5718 13.8719 11.6144 13.8293C11.6797 13.7642 11.7646 13.7224 11.856 13.7101C11.9474 13.6979 12.0402 13.716 12.1204 13.7615L13.6272 14.6226C13.8161 14.7305 14.0359 14.7715 14.2509 14.7389C14.466 14.7063 14.6637 14.6021 14.8122 14.4431C14.9606 14.2841 15.0509 14.0796 15.0687 13.8628C15.0864 13.646 15.0303 13.4296 14.9097 13.2486L14.6556 12.8675L15.5163 12.0069L17.0569 14.4279L19.5098 16.8808L20 16.3907L17.6008 13.9915L17.3289 13.5642V10.1943L18.4404 9.08279C18.6128 8.91012 18.7218 8.68423 18.7497 8.4418C18.7776 8.19936 18.7227 7.95463 18.594 7.74732C18.4653 7.54001 18.2702 7.3823 18.0406 7.29979C17.8109 7.21729 17.5601 7.21483 17.3289 7.29283V1.03973C17.3286 0.764074 17.2189 0.499795 17.024 0.304875C16.8291 0.109955 16.5648 0.000311654 16.2891 0H2.42604C2.15038 0.000311654 1.88611 0.109955 1.69118 0.304875C1.49626 0.499795 1.38662 0.764074 1.38631 1.03973V7.79799L0.693155 8.31786C0.478413 8.47972 0.304078 8.68911 0.183818 8.92963C0.0635579 9.17015 0.000641119 9.43526 0 9.70417V20.7946H0.693155V9.70417C0.693541 9.54282 0.73129 9.38376 0.803443 9.23945C0.875595 9.09514 0.980191 8.9695 1.10903 8.87237L1.38631 8.66444V13.3126C1.38631 13.4526 1.42867 13.5892 1.5078 13.7046C1.58693 13.82 1.69914 13.9088 1.82966 13.9592C1.96019 14.0096 2.10292 14.0194 2.23909 13.9872C2.37525 13.9549 2.49848 13.8823 2.59256 13.7787L3.46028 12.8234H3.46578V12.8173L4.92921 11.2061C5.0143 11.1117 5.13169 11.0527 5.2582 11.0406C5.38471 11.0285 5.51115 11.0643 5.61255 11.141L5.63023 11.1542C5.68946 11.1981 5.73903 11.2537 5.77589 11.3175C5.81274 11.3813 5.83609 11.452 5.84448 11.5252C5.85315 11.5974 5.84691 11.6706 5.82613 11.7402C5.80535 11.8099 5.77048 11.8745 5.72369 11.9302C5.37745 12.345 4.9675 12.8368 4.74649 13.1019C4.5909 13.2888 4.50564 13.5243 4.50551 13.7675V13.9226C4.50624 14.1879 4.45433 14.4508 4.35278 14.696C4.25122 14.9412 4.10205 15.1638 3.91389 15.3509C3.66115 15.6023 3.46078 15.9012 3.32437 16.2306C3.18796 16.5599 3.11822 16.913 3.1192 17.2694V20.7946H3.81235V20.1015H16.2891C16.5648 20.1012 16.8291 19.9915 17.024 19.7966C17.2189 19.6017 17.3286 19.3374 17.3289 19.0618V18.8588L19.5098 21.0397L20 20.5496L15.6975 16.2471C15.6012 16.1503 15.4866 16.0735 15.3604 16.0212C15.2342 15.9689 15.0989 15.9422 14.9623 15.9426ZM11.2435 15.0176L11.4045 15.1384L9.9072 16.6357H9.35759V16.0861L10.8853 14.5584C10.9618 14.7406 11.0855 14.8991 11.2435 15.0176ZM10.6094 13.3996L11.5845 10.9618C11.6101 10.8973 11.6544 10.8421 11.7119 10.8032C11.7693 10.7643 11.837 10.7437 11.9064 10.7439H13.7195L10.6885 13.775C10.6401 13.727 10.6068 13.6658 10.5927 13.5991C10.5787 13.5324 10.5845 13.4631 10.6094 13.3996ZM12.3428 13.1009L16.2891 9.15458L16.8387 9.70417L13.049 13.4939L12.4643 13.1597C12.425 13.1377 12.3845 13.118 12.3428 13.1009ZM14.333 13.6331C14.367 13.6842 14.3828 13.7452 14.3778 13.8064C14.3728 13.8676 14.3473 13.9253 14.3054 13.9701C14.2636 14.015 14.2078 14.0444 14.1471 14.0536C14.0864 14.0628 14.0244 14.0512 13.9711 14.0208L13.6728 13.8503L14.1558 13.3674L14.333 13.6331ZM16.6357 12.4749L16.0184 11.5048L16.6357 10.8875V12.4749ZM17.6755 7.92923C17.7523 7.92923 17.8274 7.95203 17.8914 7.99473C17.9553 8.03744 18.0051 8.09813 18.0345 8.16915C18.0639 8.24016 18.0716 8.3183 18.0566 8.39368C18.0416 8.46907 18.0046 8.53832 17.9502 8.59266L17.3289 9.21402L16.7793 8.66444L17.4007 8.04306C17.4367 8.00685 17.4795 7.97815 17.5267 7.95861C17.5738 7.93908 17.6244 7.92909 17.6755 7.92923ZM2.07946 13.3123V1.03973C2.07957 0.947847 2.11612 0.859754 2.18109 0.794781C2.24606 0.729808 2.33416 0.69326 2.42604 0.693155H16.2891C16.381 0.69326 16.4691 0.729808 16.5341 0.794781C16.5991 0.859754 16.6356 0.947847 16.6357 1.03973V7.82771L15.9426 8.52087V1.38631H2.77262V12.5492L2.07946 13.3123ZM5.19866 13.7675C5.19868 13.6865 5.22708 13.608 5.27892 13.5458C5.48195 13.3022 5.84435 12.8675 6.17034 12.4768H6.93155C7.02344 12.4769 7.11153 12.5134 7.1765 12.5784C7.24147 12.6434 7.27802 12.7315 7.27813 12.8234V14.2097C7.27802 14.3016 7.24147 14.3897 7.1765 14.4546C7.11153 14.5196 7.02344 14.5561 6.93155 14.5563H5.54524C5.45335 14.5561 5.36526 14.5196 5.30029 14.4546C5.23532 14.3897 5.19877 14.3016 5.19866 14.2097V13.7675ZM4.40397 15.8411C4.63031 15.6152 4.81495 15.3511 4.94937 15.0609C5.12379 15.1838 5.33193 15.2496 5.54524 15.2494H6.93155C7.20721 15.2491 7.47148 15.1394 7.6664 14.9445C7.86132 14.7496 7.97097 14.4853 7.97128 14.2097V12.8234C7.97097 12.5477 7.86132 12.2834 7.6664 12.0885C7.47148 11.8936 7.20721 11.7839 6.93155 11.7836H6.52582C6.54372 11.6716 6.54613 11.5577 6.53298 11.4451C6.50317 11.1822 6.38885 10.9362 6.20719 10.7439H6.93155C7.20721 10.7436 7.47148 10.6339 7.6664 10.439C7.86132 10.2441 7.97097 9.97983 7.97128 9.70417V9.01101H7.27813V9.70417C7.27802 9.79605 7.24147 9.88415 7.1765 9.94912C7.11153 10.0141 7.02344 10.0506 6.93155 10.0507H5.54524C5.45335 10.0506 5.36526 10.0141 5.30029 9.94912C5.23532 9.88415 5.19877 9.79605 5.19866 9.70417V8.31786C5.19877 8.22597 5.23532 8.13788 5.30029 8.07291C5.36526 8.00793 5.45335 7.97139 5.54524 7.97128H6.23839V7.27813H5.54524C5.26958 7.27844 5.00531 7.38809 4.81039 7.58301C4.61547 7.77793 4.50582 8.0422 4.50551 8.31786V9.70417C4.50546 9.84279 4.53321 9.98001 4.58713 10.1077C4.64105 10.2354 4.72003 10.351 4.81941 10.4476C4.66612 10.516 4.52876 10.6156 4.41611 10.7401L3.46578 11.7862V2.07946H15.2494V9.21402L14.3422 10.1213C14.1521 10.0743 13.9571 10.0506 13.7613 10.0507H11.9064C11.6984 10.0501 11.4951 10.1121 11.3229 10.2286C11.1507 10.3452 11.0176 10.511 10.941 10.7043L9.96584 13.1422C9.96217 13.1514 9.95965 13.1607 9.95626 13.1699H9.01101V13.8631H9.95015C10.0016 14.014 10.0868 14.1512 10.1992 14.2642L8.66444 15.799V17.3289H10.1943L11.9647 15.5585L12.7541 16.1505C13.1745 16.4645 13.6849 16.6346 14.2097 16.6357H14.9623C15.0078 16.6356 15.0529 16.6445 15.095 16.6619C15.1371 16.6793 15.1753 16.7049 15.2074 16.7372L15.2494 16.7793V18.022H3.81235V17.2694C3.81162 17.004 3.86353 16.7412 3.96508 16.496C4.06664 16.2508 4.21581 16.0282 4.40397 15.8411ZM16.6357 19.0618C16.6356 19.1536 16.5991 19.2417 16.5341 19.3067C16.4691 19.3717 16.381 19.4082 16.2891 19.4083H3.81235V18.7152H15.9426V17.4724L16.6357 18.1656V19.0618Z" fill="black"/>
<path d="M7.97127 4.5055H7.27811V5.19866C7.27801 5.29054 7.24146 5.37863 7.17649 5.44361C7.11151 5.50858 7.02342 5.54513 6.93154 5.54523H5.54523C5.45334 5.54513 5.36525 5.50858 5.30027 5.44361C5.2353 5.37863 5.19875 5.29054 5.19865 5.19866V3.81235C5.19875 3.72046 5.2353 3.63237 5.30027 3.56739C5.36525 3.50242 5.45334 3.46587 5.54523 3.46577H6.23838V2.77261H5.54523C5.26957 2.77293 5.00529 2.88257 4.81037 3.07749C4.61545 3.27241 4.50581 3.53669 4.50549 3.81235V5.19866C4.50581 5.47431 4.61545 5.73859 4.81037 5.93351C5.00529 6.12843 5.26957 6.23807 5.54523 6.23839H6.93154C7.20719 6.23807 7.47147 6.12843 7.66639 5.93351C7.86131 5.73859 7.97095 5.47431 7.97127 5.19866V4.5055Z" fill="black"/>
<path d="M7.37962 2.87411L5.64673 4.60699L6.13687 5.09714L7.86976 3.36425L7.37962 2.87411Z" fill="black"/>
<path d="M14.2096 2.77261H9.01099V3.46577H14.2096V2.77261Z" fill="black"/>
<path d="M7.37954 7.37962L5.64673 9.11258L6.1369 9.6027L7.86971 7.86974L7.37954 7.37962Z" fill="black"/>
<path d="M12.4768 8.66443H9.01099V9.35758H12.4768V8.66443Z" fill="black"/>
<path d="M13.1699 4.15894H9.01099V4.85209H13.1699V4.15894Z" fill="black"/>
<path d="M14.2096 7.27814H9.01099V7.97129H14.2096V7.27814Z" fill="black"/>
</svg>
