<svg width="23" height="21" viewBox="0 0 23 21" fill="none" xmlns="http://www.w3.org/2000/svg">
<g clip-path="url(#clip0_16_1190)">
<path fill-rule="evenodd" clip-rule="evenodd" d="M21.4887 17.0948C21.1792 18.439 19.5593 19.6701 17.8224 19.6835L5.18031 19.6832C3.41618 19.6794 1.68079 18.4404 1.47414 17.0512L21.4887 17.0949V17.0948ZM0.398258 15.8169C-0.56959 16.1927 0.293207 18.7246 2.27098 20.0907C3.99816 21.2836 6.10617 20.9598 8.45106 20.9598C10.8112 20.9598 13.1712 20.9598 15.5313 20.9598C18.1668 20.9598 19.5639 21.1208 21.2591 19.6371C21.803 19.161 22.3589 18.5072 22.6814 17.5649C23.2172 15.9995 23.226 15.761 21.5233 15.7716C18.5272 15.7903 0.763136 15.6752 0.398164 15.8169H0.398258Z" fill="black"/>
<path fill-rule="evenodd" clip-rule="evenodd" d="M11.4352 2.83522C11.7254 2.95938 14.6057 7.2258 15.0648 7.87764C15.6126 8.65551 18.4584 12.5577 18.6147 13.1131L11.4193 13.0628L11.4353 2.83522H11.4352ZM10.1687 0.835597V13.5452C10.1687 14.3489 10.4675 14.4334 11.2831 14.4334H11.1742C13.97 14.4334 16.7657 14.4334 19.5615 14.4334C21.5581 14.4334 20.0612 12.782 19.5333 12.0416L13.069 2.76512C12.8199 2.40607 11.4031 0.149598 11.0475 0.0465577C10.3963 -0.141975 10.1687 0.266246 10.1687 0.835597Z" fill="black"/>
<path fill-rule="evenodd" clip-rule="evenodd" d="M7.51562 7.14558L7.53362 13.0461C6.93831 13.2038 4.89681 13.1317 4.1984 13.097C4.28582 12.6622 7.12322 7.54395 7.51571 7.14558H7.51562ZM3.33169 14.4334C4.6604 14.4334 7.88292 14.6004 8.67948 14.2233C9.00769 12.2477 8.80627 7.18828 8.80282 4.88948C8.80282 3.82342 8.13426 3.63085 7.63289 4.28541L3.38972 11.741C3.00375 12.4037 1.44376 14.4334 3.33159 14.4334H3.33169Z" fill="black"/>
</g>
<defs>
<clipPath id="clip0_16_1190">
<rect width="23" height="21" fill="white"/>
</clipPath>
</defs>
</svg>
