<svg width="20" height="21" viewBox="0 0 20 21" fill="none" xmlns="http://www.w3.org/2000/svg">
<rect width="20" height="16" rx="3" fill="black"/>
<rect x="1" y="1" width="18" height="14" rx="2" fill="white"/>
<path d="M9.20759 13.0294C9.6079 12.5094 10.3921 12.5094 10.7924 13.0294L13.9568 17.14C14.463 17.7976 13.9942 18.75 13.1644 18.75H6.83563C6.00579 18.75 5.53702 17.7976 6.04322 17.14L9.20759 13.0294Z" fill="white"/>
<path d="M9.18912 14.1236C9.58825 13.5705 10.4117 13.5705 10.8109 14.1236L13.1861 17.4148C13.6634 18.0762 13.1908 19 12.3752 19H7.62478C6.80917 19 6.3366 18.0762 6.8139 17.4148L9.18912 14.1236Z" fill="black"/>
</svg>
