<svg width="20" height="19" viewBox="0 0 20 19" fill="none" xmlns="http://www.w3.org/2000/svg">
<path d="M4.47642 19C4.2573 19 4.0397 18.9322 3.854 18.7991C3.50807 18.5506 3.34648 18.1234 3.44063 17.7112L4.72728 12.0927L0.36377 8.29925C0.0430226 8.02167 -0.0795084 7.58209 0.0521782 7.17987C0.183865 6.77841 0.54215 6.49418 0.966355 6.45531L6.73981 5.9357L9.02243 0.640312C9.19074 0.251254 9.57405 0 9.99993 0C10.4258 0 10.8091 0.251254 10.9774 0.639404L13.2601 5.9357L19.0326 6.45531C19.4577 6.49327 19.816 6.77841 19.9477 7.17987C20.0794 7.58133 19.9576 8.02167 19.6369 8.29925L15.2733 12.092L16.56 17.7103C16.6543 18.1234 16.4926 18.5506 16.1468 18.7984C15.8018 19.0461 15.3417 19.0652 14.9784 18.8487L9.99993 15.8995L5.02148 18.8504C4.85317 18.9495 4.66563 19 4.47642 19ZM9.99993 14.629C10.1891 14.629 10.3765 14.6794 10.545 14.7785L15.2434 17.5642L14.0291 12.2612C13.9424 11.8838 14.0717 11.4898 14.3659 11.2344L18.486 7.65243L13.035 7.16172C12.6425 7.12617 12.305 6.88157 12.1516 6.52307L9.99993 1.52583L7.84564 6.52383C7.69397 6.87991 7.35643 7.12451 6.96488 7.16006L1.51309 7.65077L5.63306 11.2328C5.92818 11.4889 6.05727 11.8821 5.96983 12.2605L4.75643 17.5633L9.45487 14.7785C9.62318 14.6794 9.81072 14.629 9.99993 14.629ZM6.69571 6.03811C6.69571 6.03811 6.69571 6.03902 6.6948 6.03978L6.69571 6.03811ZM13.3025 6.03569L13.3034 6.03735C13.3034 6.03645 13.3034 6.03645 13.3025 6.03569Z" fill="black"/>
</svg>
