<svg width="22" height="23" viewBox="0 0 22 23" fill="none" xmlns="http://www.w3.org/2000/svg">
<path d="M10.9615 2.80534C11.2013 2.80534 11.3957 2.61092 11.3957 2.37109V0.434255C11.3957 0.194425 11.2013 0 10.9615 0C10.7216 0 10.5272 0.194425 10.5272 0.434255V2.37109C10.5273 2.61092 10.7217 2.80534 10.9615 2.80534Z" fill="black"/>
<path d="M21.5763 14.9186L20.8092 14.1537C20.5363 13.8811 20.1726 13.731 19.785 13.731C19.5372 13.731 19.2993 13.7926 19.0885 13.9081L17.6429 12.4642L17.7133 12.3939C18.2998 11.8063 18.2995 10.8514 17.7132 10.2658C17.5037 10.0558 17.2423 9.91588 16.9573 9.85698C16.9966 9.72155 17.0172 9.57968 17.0172 9.4345C17.0172 9.03112 16.8605 8.65288 16.5769 8.3704C16.3673 8.1605 16.1059 8.02053 15.821 7.96163C15.8602 7.82619 15.8808 7.68437 15.8808 7.53915C15.8808 7.13572 15.7242 6.75752 15.44 6.47462C15.2255 6.26031 14.9617 6.12466 14.6848 6.06692C14.8329 5.55609 14.7063 4.98135 14.3045 4.57879C13.9699 4.24569 13.516 4.10254 13.0786 4.14893L10.2139 3.60671C9.77705 3.52383 9.23146 3.46903 8.88707 3.78315C8.86534 3.80299 8.84317 3.8258 8.82135 3.85119C8.28736 3.65655 7.66455 3.77246 7.23693 4.1996C6.95325 4.48293 6.79699 4.861 6.79699 5.26417C6.79699 5.4094 6.81755 5.55122 6.85675 5.6867C6.57208 5.74555 6.31099 5.88535 6.10216 6.09456C5.81792 6.37764 5.66118 6.75528 5.66088 7.15797C5.66075 7.30354 5.6814 7.44584 5.72081 7.58166C5.43601 7.64039 5.17475 7.77992 4.96528 7.98914C4.68104 8.27308 4.52451 8.65137 4.52451 9.05432C4.52451 9.36296 4.61666 9.657 4.78741 9.90536C4.57181 9.97845 4.37433 10.1001 4.20896 10.2653C3.62211 10.8514 3.62189 11.8063 4.20935 12.3948L4.27951 12.4647L2.83372 13.9078C2.29641 13.6548 1.6344 13.7496 1.191 14.1925L0.423389 14.9579C0.150357 15.2306 4.31193e-05 15.5944 0 15.9821C0 16.3699 0.150357 16.7337 0.423389 17.0065L1.38137 17.9633C1.55105 18.1328 1.82602 18.1326 1.99548 17.9629C2.16498 17.7933 2.16481 17.5183 1.99513 17.3488L1.03715 16.392C0.928402 16.2834 0.86851 16.1378 0.86851 15.9822C0.86851 15.8266 0.928402 15.681 1.03689 15.5727L1.80454 14.8072C1.99634 14.6156 2.2899 14.587 2.51282 14.7203C2.52852 14.7439 2.54667 14.7663 2.56745 14.7872C2.60467 14.8245 2.64714 14.853 2.69224 14.874L7.09442 19.2697C7.11534 19.3153 7.14405 19.3582 7.18153 19.3957C7.218 19.4322 7.25961 19.4604 7.30377 19.4812C7.39686 19.5865 7.4483 19.7209 7.4483 19.8643C7.4483 20.02 7.38841 20.1655 7.27966 20.2741L6.51279 21.0401C6.2862 21.2657 5.91761 21.2657 5.69171 21.0408L4.73373 20.0827C4.56414 19.9131 4.28921 19.9131 4.11962 20.0827C3.95003 20.2523 3.95003 20.5272 4.11962 20.6968L5.07829 21.6556C5.36047 21.9366 5.73103 22.077 6.10177 22.077C6.4726 22.077 6.8436 21.9364 7.12612 21.6551L7.89347 20.8887C8.1665 20.6159 8.31686 20.2522 8.31686 19.8643C8.31686 19.5875 8.23989 19.3232 8.09678 19.0953L9.72393 17.4701C9.72565 17.4684 9.72738 17.4666 9.72914 17.4648C9.91546 17.2722 10.4343 17.3083 10.9361 17.3431C11.2926 17.3679 11.6901 17.3954 12.0784 17.3507L13.8603 19.1304C13.7448 19.3409 13.6832 19.5785 13.6832 19.8259C13.6832 20.2133 13.8336 20.5769 14.1066 20.8496L14.874 21.6161C15.1469 21.8886 15.5106 22.0388 15.8981 22.0388C16.2857 22.0388 16.6494 21.8887 16.9223 21.6161L21.5766 16.9674C21.8496 16.6947 22 16.3309 22 15.9431C22 15.5553 21.8496 15.1916 21.5763 14.9186ZM10.0522 4.46004L11.936 4.81659L10.8085 5.94369C10.634 5.85986 10.395 5.70351 10.1327 5.45265C9.77377 5.10924 9.517 4.71276 9.49363 4.46547C9.49358 4.46534 9.49358 4.46521 9.49358 4.46508C9.49358 4.46504 9.49354 4.465 9.49354 4.46495C9.49186 4.44719 9.49143 4.433 9.49164 4.42218C9.54843 4.40838 9.69926 4.39307 10.0522 4.46004ZM7.85065 4.81409C8.07065 4.59431 8.41241 4.56896 8.66099 4.7373C8.80186 5.32794 9.30571 5.86327 9.53239 6.08016C9.70038 6.24091 10.2394 6.72285 10.7835 6.85532C10.8571 6.96083 10.8972 7.08661 10.8972 7.21933C10.8972 7.3903 10.8314 7.55014 10.7116 7.66984C10.5921 7.78954 10.432 7.85543 10.2607 7.85543C10.0894 7.85543 9.9293 7.78954 9.80926 7.66928L9.80922 7.66924L9.809 7.66902L7.85061 5.71416C7.73121 5.59494 7.66545 5.4351 7.66545 5.26417C7.6655 5.0932 7.73125 4.93336 7.85065 4.81409ZM6.71592 6.70906C6.83541 6.5894 6.99534 6.52347 7.16635 6.52347C7.33757 6.52347 7.49802 6.58953 7.61828 6.70966L9.19524 8.28347C9.44357 8.53218 9.44357 8.9369 9.1961 9.18475C9.07597 9.30441 8.91531 9.3703 8.74374 9.3703C8.57217 9.3703 8.4115 9.30441 8.29189 9.18527L8.29185 9.18523L7.0955 7.98914C7.09365 7.98729 7.09162 7.98556 7.08972 7.98366L6.71545 7.60956C6.59536 7.4896 6.52926 7.32946 6.52939 7.15862C6.52956 6.98834 6.59545 6.82901 6.71592 6.70906ZM5.57904 8.60363C5.69861 8.48424 5.85888 8.41848 6.03041 8.41848C6.20052 8.41848 6.35941 8.48329 6.47846 8.60061L7.67848 9.80007C7.79813 9.91925 7.86406 10.0789 7.86406 10.2497C7.86406 10.4204 7.79813 10.5801 7.678 10.6997C7.55847 10.8191 7.39837 10.8848 7.22715 10.8848C7.05566 10.8848 6.89504 10.8189 6.77534 10.6997L6.34031 10.2652C6.34022 10.2651 6.34009 10.265 6.34001 10.2649L5.57908 9.50487C5.45912 9.38504 5.39306 9.22498 5.39306 9.05423C5.39306 8.88352 5.45912 8.72342 5.57904 8.60363ZM4.82272 10.8797C4.94281 10.7598 5.1033 10.6937 5.27462 10.6937C5.44589 10.6937 5.60633 10.7597 5.72638 10.8796L6.16201 11.3147C6.28171 11.4339 6.3476 11.5936 6.3476 11.7643C6.3476 11.9351 6.28167 12.0947 6.16111 12.2148C6.04162 12.3345 5.88152 12.4004 5.71025 12.4004C5.53894 12.4004 5.37884 12.3345 5.25849 12.214L5.20394 12.1596C5.20321 12.1589 5.20265 12.1581 5.20196 12.1574C5.20114 12.1567 5.20028 12.156 5.19946 12.1552L4.82316 11.7804C4.57483 11.5315 4.57462 11.1275 4.82272 10.8797ZM13.6723 15.8151C13.5028 15.6454 13.2278 15.6452 13.0582 15.8147L12.6718 16.2006C12.3047 16.5677 11.6395 16.5215 10.9962 16.4768C10.2976 16.4283 9.57525 16.3782 9.1078 16.8581L7.50828 18.4557L3.5084 14.4617L4.92393 13.0487C5.15789 13.1921 5.42786 13.269 5.71034 13.269C6.11389 13.269 6.49231 13.1125 6.77495 12.8294C7.0595 12.546 7.21624 12.1678 7.21624 11.7644C7.21624 11.7606 7.21598 11.7569 7.21598 11.7532C7.21973 11.7532 7.22348 11.7534 7.22723 11.7534C7.63022 11.7534 8.00834 11.5975 8.29137 11.3148C8.57592 11.0314 8.73266 10.6531 8.73266 10.2498C8.73266 10.246 8.7324 10.2423 8.7324 10.2385C8.73619 10.2385 8.73999 10.2388 8.74382 10.2388C9.14669 10.2388 9.52502 10.083 9.80995 9.79925C10.1057 9.50297 10.2521 9.11292 10.2493 8.72368C10.2531 8.72372 10.257 8.72394 10.2609 8.72394C10.6644 8.72389 11.0428 8.5675 11.3259 8.2839C11.6096 8.00057 11.7658 7.6225 11.7658 7.21933C11.7658 6.93737 11.6892 6.66783 11.5462 6.43434L12.7869 5.19419C12.8794 5.10213 12.9934 5.04435 13.1128 5.0205C13.1258 5.01912 13.1385 5.01705 13.1512 5.01455C13.3429 4.98812 13.5442 5.04728 13.6908 5.19328C13.9391 5.44204 13.9391 5.84676 13.6917 6.09461L13.3139 6.47091C13.3126 6.47216 13.3113 6.47328 13.31 6.47453L12.8748 6.909C12.7051 7.07846 12.7049 7.35343 12.8744 7.52311C13.044 7.69282 13.3189 7.69295 13.4885 7.52349L13.8679 7.14465C13.868 7.14456 13.8681 7.14447 13.8682 7.14439L13.9255 7.08726C14.1745 6.84053 14.578 6.84104 14.8267 7.08945C14.9464 7.20864 15.0123 7.36831 15.0123 7.53906C15.0123 7.70977 14.9464 7.86944 14.8258 7.98957L14.4458 8.37036C14.4457 8.3704 14.4457 8.37044 14.4456 8.37053L14.0105 8.80392C13.8405 8.97317 13.84 9.24814 14.0092 9.41803C14.1785 9.58796 14.4534 9.58848 14.6233 9.41928L15.0605 8.9839C15.1799 8.8642 15.34 8.79832 15.5113 8.79832C15.6826 8.79832 15.8428 8.8642 15.9631 8.98476C16.0828 9.10399 16.1487 9.26366 16.1487 9.43441C16.1487 9.60512 16.0828 9.76479 15.9624 9.88467L15.2048 10.6426C15.0353 10.8122 15.0353 11.0871 15.2049 11.2567C15.2897 11.3415 15.4008 11.3838 15.5119 11.3838C15.6231 11.3838 15.7342 11.3414 15.819 11.2565L16.1903 10.8851C16.1924 10.8831 16.1947 10.8813 16.1968 10.8792C16.3163 10.7595 16.4764 10.6936 16.6477 10.6936C16.819 10.6936 16.9791 10.7595 17.099 10.8796C17.3471 11.1275 17.3469 11.5315 17.099 11.7798L16.7215 12.1568C16.7214 12.157 16.7212 12.1571 16.7211 12.1572C16.7209 12.1574 16.7208 12.1575 16.7207 12.1577L16.1215 12.7561C15.9518 12.9256 15.9517 13.2006 16.1211 13.3703C16.2059 13.4552 16.3172 13.4976 16.4284 13.4976C16.5394 13.4976 16.6505 13.4553 16.7353 13.3706L17.0283 13.0779L18.433 14.481L14.4335 18.4756L13.0005 17.0443C13.1004 16.9801 13.196 16.9045 13.2857 16.8148L13.6718 16.4291C13.8416 16.2597 13.8418 15.9848 13.6723 15.8151ZM20.9628 16.3529L16.3085 21.0016C16.1996 21.1103 16.0538 21.1702 15.8981 21.1702C15.7424 21.1702 15.5966 21.1103 15.4877 21.0015L14.7203 20.2351C14.6115 20.1265 14.5517 19.9812 14.5517 19.8259C14.5517 19.6707 14.6115 19.5254 14.7203 19.4168L19.3746 14.7681C19.4836 14.6593 19.6293 14.5994 19.785 14.5994C19.9408 14.5994 20.0865 14.6593 20.1957 14.7683L20.9629 15.5333C21.0716 15.6419 21.1315 15.7874 21.1315 15.9431C21.1314 16.0988 21.0716 16.2443 20.9628 16.3529Z" fill="black"/>
<path d="M5.19524 2.43925C5.28001 2.52385 5.391 2.56611 5.50199 2.56611C5.61324 2.56611 5.72453 2.52359 5.80934 2.4386C5.97876 2.26884 5.9785 1.99391 5.80874 1.8245L4.22635 0.245253C4.05663 0.0758371 3.78166 0.0760527 3.61224 0.245857C3.44283 0.415617 3.44308 0.690546 3.61284 0.859962L5.19524 2.43925Z" fill="black"/>
<path d="M16.4211 2.56612C16.5321 2.56612 16.6432 2.52378 16.7279 2.43914L18.3091 0.859847C18.4788 0.690388 18.479 0.415416 18.3095 0.245741C18.14 0.0760669 17.8651 0.0758944 17.6954 0.245397L16.1142 1.82469C15.9445 1.99414 15.9443 2.26912 16.1138 2.43879C16.1987 2.52369 16.3099 2.56612 16.4211 2.56612Z" fill="black"/>
<path d="M2.67011 18.6795C2.50199 18.8505 2.50432 19.1255 2.67537 19.2936L2.67662 19.2948C2.761 19.3777 2.87057 19.4191 2.98009 19.4191C3.09251 19.4191 3.20492 19.3755 3.29008 19.2889C3.4582 19.1179 3.45523 18.8423 3.28421 18.6742C3.11325 18.5061 2.83832 18.5085 2.67011 18.6795Z" fill="black"/>
<path d="M14.7344 15.1895C14.8005 15.1895 14.8675 15.1744 14.9304 15.1428C15.1445 15.0347 15.2306 14.7736 15.1226 14.5595C15.0146 14.3454 14.7534 14.2593 14.5393 14.3673L14.5369 14.3685C14.3228 14.4765 14.238 14.737 14.3459 14.9512C14.4222 15.1024 14.5755 15.1895 14.7344 15.1895Z" fill="black"/>
</svg>
