<svg width="21" height="21" viewBox="0 0 21 21" fill="none" xmlns="http://www.w3.org/2000/svg">
<path fill-rule="evenodd" clip-rule="evenodd" d="M7.66936 1.68594C5.83599 1.68594 4.34975 3.17218 4.34975 5.00554C4.34975 6.83889 5.83599 8.32513 7.66936 8.32513C9.50276 8.32513 10.9889 6.83889 10.9889 5.00554C10.9889 3.17218 9.50276 1.68594 7.66936 1.68594ZM2.74719 5.00554C2.74719 2.2871 4.95092 0.083374 7.66936 0.083374C10.3878 0.083374 12.5915 2.2871 12.5915 5.00554C12.5915 7.72397 10.3878 9.92775 7.66936 9.92775C4.95092 9.92775 2.74719 7.72397 2.74719 5.00554Z" fill="black"/>
<path fill-rule="evenodd" clip-rule="evenodd" d="M5.63701 14.0486C3.40884 14.0486 1.60256 15.8548 1.60256 18.0831C1.60256 18.1939 1.62169 18.2705 1.6409 18.3139C1.65636 18.3488 1.66777 18.3555 1.67282 18.3584C2.22243 18.6814 3.80347 19.3141 7.66942 19.3141C11.5353 19.3141 13.1159 18.6816 13.6655 18.3587C13.6706 18.3557 13.6825 18.3488 13.6979 18.3139C13.7172 18.2705 13.7362 18.1939 13.7362 18.0831C13.7362 15.8548 11.93 14.0486 9.70177 14.0486H5.63701ZM0 18.0831C0 14.9698 2.52377 12.446 5.63701 12.446H9.70177C12.815 12.446 15.3389 14.9698 15.3389 18.0831C15.3389 18.6192 15.1576 19.3406 14.4775 19.7403C13.5814 20.267 11.6759 20.9167 7.66942 20.9167C3.66291 20.9167 1.75752 20.267 0.861281 19.7403C0.181229 19.3406 0 18.6192 0 18.0831Z" fill="black"/>
<path fill-rule="evenodd" clip-rule="evenodd" d="M14.1074 2.04921C14.2229 1.622 14.6628 1.36928 15.09 1.48474C16.8575 1.96245 18.0861 3.70783 18.0861 5.69233C18.0861 7.78923 16.6489 9.67982 14.6332 9.92201C14.1938 9.97472 13.7948 9.66139 13.742 9.22201C13.6892 8.78264 14.0026 8.38361 14.442 8.33084C15.5169 8.20172 16.4836 7.12233 16.4836 5.69233C16.4836 4.33558 15.6517 3.29659 14.6719 3.0318C14.2447 2.91634 13.992 2.47642 14.1074 2.04921Z" fill="black"/>
<path fill-rule="evenodd" clip-rule="evenodd" d="M16.4984 13.0939C16.583 12.6595 17.0039 12.3761 17.4383 12.4609C19.4101 12.8455 20.8334 14.573 20.8334 16.5821V17.1391C20.8334 17.6322 20.6854 18.3346 20.0421 18.7458C19.609 19.0227 18.9373 19.3177 17.9016 19.5271C17.4678 19.6149 17.0451 19.3344 16.9573 18.9007C16.8696 18.4669 17.15 18.0442 17.5838 17.9564C18.4674 17.7777 18.9449 17.5452 19.179 17.3956L19.1809 17.3937C19.1826 17.3915 19.1889 17.3831 19.1966 17.3642C19.2137 17.3228 19.2308 17.2484 19.2308 17.1391V16.5821C19.2308 15.3398 18.3508 14.2716 17.1315 14.0338C16.6971 13.949 16.4137 13.5283 16.4984 13.0939Z" fill="black"/>
</svg>
