<svg width="18" height="21" viewBox="0 0 18 21" fill="none" xmlns="http://www.w3.org/2000/svg">
<path d="M13.3335 20.0156C13.3335 20.2767 13.2314 20.5271 13.0497 20.7117C12.868 20.8963 12.6215 21 12.3645 21H3.22989C2.37357 20.999 1.55259 20.653 0.947076 20.0379C0.341562 19.4227 0.000961744 18.5887 0 17.7188V3.28125C0.000961744 2.41131 0.341562 1.57728 0.947076 0.962135C1.55259 0.346993 2.37357 0.000977037 3.22989 0L12.3645 0C12.6215 0 12.868 0.103711 13.0497 0.288317C13.2314 0.472923 13.3335 0.723303 13.3335 0.984375C13.3335 1.24545 13.2314 1.49583 13.0497 1.68043C12.868 1.86504 12.6215 1.96875 12.3645 1.96875H3.22989C2.88736 1.96913 2.55896 2.10753 2.31675 2.35359C2.07455 2.59965 1.93831 2.93327 1.93793 3.28125V17.7188C1.9383 18.0667 2.07453 18.4004 2.31674 18.6464C2.55895 18.8925 2.88736 19.0309 3.22989 19.0312H12.3645C12.6215 19.0312 12.868 19.135 13.0497 19.3196C13.2314 19.5042 13.3335 19.7546 13.3335 20.0156ZM17.7162 9.80396L13.1115 5.12605C13.0219 5.03297 12.915 4.95887 12.7971 4.90804C12.6791 4.85722 12.5523 4.83068 12.4242 4.82996C12.296 4.82924 12.169 4.85435 12.0504 4.90384C11.9319 4.95334 11.8242 5.02623 11.7336 5.1183C11.643 5.21037 11.5712 5.31978 11.5225 5.44021C11.4738 5.56064 11.4491 5.68969 11.4498 5.81988C11.4506 5.95008 11.4767 6.07883 11.5268 6.19869C11.5768 6.31856 11.6497 6.42714 11.7414 6.51816L14.6918 9.51562H7.06373C6.80675 9.51562 6.56029 9.61934 6.37857 9.80394C6.19685 9.98855 6.09477 10.2389 6.09477 10.5C6.09477 10.7611 6.19685 11.0115 6.37857 11.1961C6.56029 11.3807 6.80675 11.4844 7.06373 11.4844H14.6917L11.7412 14.4818C11.6508 14.5731 11.5791 14.6817 11.5301 14.8012C11.481 14.9207 11.4557 15.0489 11.4556 15.1784C11.4554 15.3079 11.4804 15.4362 11.5291 15.5558C11.5778 15.6755 11.6492 15.7842 11.7394 15.8758C11.8295 15.9674 11.9365 16.04 12.0543 16.0894C12.1721 16.1389 12.2984 16.1643 12.4258 16.1641C12.5533 16.1639 12.6795 16.1382 12.7972 16.0884C12.9148 16.0386 13.0217 15.9657 13.1115 15.8739L17.7162 11.1961C17.8979 11.0115 18 10.7611 18 10.5C18 10.2389 17.8979 9.98857 17.7162 9.80396Z" fill="black"/>
</svg>
