<svg width="20" height="20" viewBox="0 0 20 20" fill="none" xmlns="http://www.w3.org/2000/svg">
<path d="M19.928 15.5403L18.7664 12.1597C19.3263 11.0151 19.6222 9.74216 19.6242 8.46134C19.6276 6.23426 18.766 4.12852 17.198 2.53203C15.6296 0.935234 13.5397 0.0363662 11.3131 0.00109273C9.00431 -0.0353917 6.83415 0.842812 5.20263 2.4743C3.62942 4.04746 2.75684 6.12141 2.72923 8.33766C1.17868 9.50509 0.263482 11.3252 0.26649 13.2693C0.267935 14.1791 0.472701 15.0834 0.860709 15.9012L0.060591 18.2296C-0.0769482 18.6299 0.0235206 19.0645 0.322818 19.3638C0.533443 19.5745 0.811139 19.6866 1.09672 19.6866C1.21688 19.6866 1.33844 19.6668 1.457 19.626L3.78548 18.8259C4.60325 19.2139 5.50759 19.4187 6.41736 19.4201C6.42064 19.4201 6.42376 19.4201 6.42704 19.4201C8.40009 19.4201 10.2341 18.4813 11.3972 16.8927C12.6077 16.8608 13.8053 16.5678 14.888 16.0382L18.2686 17.1998C18.4095 17.2482 18.5539 17.2718 18.6967 17.2718C19.0361 17.2718 19.3661 17.1385 19.6164 16.8881C19.9721 16.5325 20.0914 16.016 19.928 15.5403ZM6.42697 18.2297C6.42443 18.2297 6.42173 18.2297 6.41919 18.2297C5.61396 18.2285 4.81431 18.0299 4.10685 17.6556C3.96138 17.5787 3.7906 17.5654 3.63505 17.6188L1.24743 18.4393L2.06786 16.0517C2.1213 15.8961 2.10802 15.7253 2.03106 15.5799C1.65676 14.8724 1.45825 14.0728 1.457 13.2675C1.45501 11.9722 1.95887 10.7445 2.84001 9.82524C3.12782 11.5798 3.96403 13.1966 5.26021 14.4697C6.54681 15.7334 8.16408 16.538 9.90908 16.8011C8.98767 17.7092 7.74564 18.2297 6.42697 18.2297ZM18.7746 16.0463C18.7407 16.0802 18.7005 16.0894 18.6554 16.0739L15.0363 14.8303C14.9735 14.8087 14.9081 14.798 14.8429 14.798C14.7469 14.798 14.6512 14.8212 14.5646 14.8671C13.5312 15.4137 12.3636 15.7036 11.1877 15.7054C11.1838 15.7054 11.1803 15.7054 11.1765 15.7054C7.2365 15.7054 3.98208 12.5049 3.91966 8.56587C3.88821 6.58208 4.64282 4.71766 6.04443 3.31606C7.44603 1.91445 9.31076 1.16012 11.2943 1.19137C15.2371 1.25391 18.4398 4.51434 18.4337 8.45946C18.4319 9.63532 18.142 10.803 17.5954 11.8363C17.5185 11.9817 17.5052 12.1525 17.5586 12.3081L18.8022 15.9271C18.8177 15.9724 18.8084 16.0126 18.7746 16.0463Z" fill="black"/>
<path d="M14.7223 5.29303H7.63015C7.3014 5.29303 7.03491 5.55955 7.03491 5.88827C7.03491 6.21702 7.30144 6.4835 7.63015 6.4835H14.7223C15.0511 6.4835 15.3176 6.21698 15.3176 5.88827C15.3176 5.55955 15.0511 5.29303 14.7223 5.29303Z" fill="black"/>
<path d="M14.7223 7.74109H7.63015C7.3014 7.74109 7.03491 8.00761 7.03491 8.33632C7.03491 8.66504 7.30144 8.93156 7.63015 8.93156H14.7223C15.0511 8.93156 15.3176 8.66504 15.3176 8.33632C15.3176 8.00761 15.0511 7.74109 14.7223 7.74109Z" fill="black"/>
<path d="M11.9924 10.1891H7.63015C7.3014 10.1891 7.03491 10.4556 7.03491 10.7844C7.03491 11.1131 7.30144 11.3796 7.63015 11.3796H11.9923C12.3211 11.3796 12.5876 11.1131 12.5876 10.7844C12.5876 10.4556 12.3211 10.1891 11.9924 10.1891Z" fill="black"/>
</svg>
