<svg width="17" height="16" viewBox="0 0 17 16" fill="none" xmlns="http://www.w3.org/2000/svg">
<rect width="16.8" height="15.2727" fill="white"/>
<path d="M15.9504 8.68917L15.9503 8.68926L13.6536 14.036C13.6536 14.036 13.6535 14.0361 13.6535 14.0361C13.6535 14.0361 13.6535 14.0362 13.6535 14.0362C13.5367 14.3075 13.2701 14.4827 12.9759 14.4827H6.10909C5.70158 14.4827 5.37182 14.153 5.37182 13.7455V6.11506C5.37182 5.91974 5.44905 5.73304 5.58713 5.59459L10.0605 1.11329L10.1617 1.21291C10.1617 1.21296 10.1618 1.21301 10.1618 1.21306C10.3434 1.39209 10.4199 1.65083 10.3665 1.896L9.6506 5.17705L9.44149 6.13545H10.4224H15.2727C15.6802 6.13545 16.01 6.46521 16.01 6.87273V8.39851C16.01 8.4987 15.9896 8.598 15.9504 8.68917ZM0.79 14.4827V6.89909H2.26455V14.4827H0.79Z" stroke="#173652" stroke-width="1.58"/>
</svg>
