<svg width="145" height="27" viewBox="0 0 145 27" fill="none" xmlns="http://www.w3.org/2000/svg">
<path d="M24.7012 17.4922H28.7675V18.5568H25.9118V20.5285H28.5369L28.4139 21.5701H25.9118V23.6532H28.8405V24.7178H24.7012V17.4922Z" fill="white"/>
<path d="M29.9668 17.242L31.1352 16.9922V23.3723C31.1352 23.6951 31.2505 23.8296 31.5503 23.8296L31.435 24.8404C30.5472 24.8404 29.9668 24.5176 29.9668 23.5145V17.242Z" fill="white"/>
<path d="M36.8152 24.4787C36.2195 24.74 35.6699 24.8553 35.0126 24.8553C33.2523 24.8553 32.2607 23.6062 32.2607 22.0919C32.2607 20.5891 33.1985 19.3208 34.7397 19.3208C36.3578 19.3208 37.1573 20.5699 37.1573 22.2802H33.4253C33.4983 23.1258 33.9672 23.8253 35.0395 23.8253C35.6007 23.8253 36.0734 23.7023 36.5846 23.4909L36.8152 24.4787ZM35.9812 21.4731C35.8159 20.5661 35.3047 20.347 34.7397 20.347C34.1863 20.347 33.6444 20.6391 33.4676 21.4731H35.9812Z" fill="white"/>
<path d="M42.5189 24.4787C41.9155 24.7708 41.3313 24.8553 40.7356 24.8553C38.9945 24.8553 37.9414 23.5832 37.9414 22.0842C37.9414 20.5814 38.983 19.3208 40.7356 19.3208C41.3505 19.3208 41.9347 19.4553 42.5381 19.7167L42.2038 20.6545C41.7233 20.4661 41.2429 20.3508 40.7548 20.3508C39.7324 20.3508 39.1482 21.1541 39.1482 22.0804C39.1482 23.0182 39.7324 23.8214 40.7548 23.8214C41.2467 23.8214 41.7156 23.6985 42.2038 23.4986L42.5189 24.4787Z" fill="white"/>
<path d="M43.7181 20.2556H43.0186V19.4524H43.7181V18.2417L44.8865 17.9727V19.4524H46.0971V20.2556H44.8865V23.0613C44.8865 23.5725 45.0632 23.8223 45.5437 23.8223C45.7743 23.8223 46.0126 23.7801 46.2547 23.707L46.4623 24.6986C46.1394 24.8024 45.8166 24.8562 45.4937 24.8562C44.4406 24.8562 43.7219 24.3143 43.7219 23.1574V20.2556H43.7181Z" fill="white"/>
<path d="M47.2509 19.5562L48.2502 19.4524L48.377 20.2019C48.7191 19.6715 49.2533 19.3179 50.0643 19.3179V20.3518C48.9997 20.3518 48.4155 21.1858 48.4155 22.3849V24.7217H47.2471V19.5562H47.2509Z" fill="white"/>
<path d="M51.3899 17.1572C51.7551 17.1572 52.1087 17.4378 52.1087 17.8337C52.1087 18.2295 51.7743 18.5332 51.3899 18.5332C50.9825 18.5332 50.6904 18.2295 50.6904 17.8337C50.6904 17.4378 51.0133 17.1572 51.3899 17.1572ZM50.8057 19.4517H51.9741V24.7172H50.8057V19.4517Z" fill="white"/>
<path d="M57.6127 24.4787C57.0092 24.7708 56.425 24.8553 55.8293 24.8553C54.0882 24.8553 53.0352 23.5832 53.0352 22.0842C53.0352 20.5814 54.0767 19.3208 55.8293 19.3208C56.4443 19.3208 57.0285 19.4553 57.6319 19.7167L57.2975 20.6545C56.8171 20.4661 56.3366 20.3508 55.8485 20.3508C54.8262 20.3508 54.242 21.1541 54.242 22.0804C54.242 23.0182 54.8262 23.8214 55.8485 23.8214C56.3405 23.8214 56.8094 23.6985 57.2975 23.4986L57.6127 24.4787Z" fill="white"/>
<path d="M58.6458 23.3113C59.2416 23.6034 59.8258 23.7802 60.4484 23.7802C61.1671 23.7802 61.6168 23.3959 61.6168 22.8193C61.6168 21.3896 58.519 21.724 58.519 19.368C58.519 18.0958 59.5836 17.354 60.7905 17.354C61.4362 17.354 62.0011 17.5116 62.6238 17.7806L62.2702 18.7607C61.759 18.5531 61.3016 18.4263 60.7905 18.4263C60.1217 18.4263 59.7873 18.8107 59.7873 19.3641C59.7873 20.7285 62.8851 20.521 62.8851 22.8155C62.8851 24.0454 61.8128 24.8487 60.4446 24.8487C59.7143 24.8487 59.0263 24.6719 58.3076 24.3067L58.6458 23.3113Z" fill="white"/>
<path d="M67.8398 24.0914C67.4631 24.5603 66.9212 24.8524 66.2332 24.8524C64.7112 24.8524 63.7734 23.5187 63.7734 22.0813C63.7734 20.6208 64.7535 19.3179 66.2332 19.3179C66.8789 19.3179 67.4016 19.5792 67.786 20.0058V19.4524L68.9544 19.5562V24.7179H67.9435L67.8398 24.0914ZM67.8628 22.0698C67.8628 21.0359 67.2056 20.3479 66.3716 20.3479C65.526 20.3479 64.9841 21.1089 64.9841 22.0774C64.9841 23.0037 65.4838 23.8185 66.3716 23.8185C67.1518 23.8224 67.8628 23.1728 67.8628 22.0698Z" fill="white"/>
<path d="M70.8333 17.1572C71.1984 17.1572 71.552 17.4378 71.552 17.8337C71.552 18.2295 71.2176 18.5332 70.8333 18.5332C70.4259 18.5332 70.1338 18.2295 70.1338 17.8337C70.1338 17.4378 70.4566 17.1572 70.8333 17.1572ZM70.2491 19.4517H71.4175V24.7172H70.2491V19.4517Z" fill="white"/>
<path d="M72.709 17.242L73.8774 16.9922V23.3723C73.8774 23.6951 73.9927 23.8296 74.2963 23.8296L74.181 24.8404C73.2932 24.8404 72.7128 24.5176 72.7128 23.5145V17.242H72.709Z" fill="white"/>
<path d="M75.2305 17.2305L76.3989 16.9922V20.0054C76.7755 19.5788 77.2944 19.3175 77.9516 19.3175C79.4621 19.3175 80.4114 20.6511 80.4114 22.0886C80.4114 23.5491 79.4429 24.852 77.9516 24.852C77.2636 24.852 76.7217 24.5599 76.3451 24.1025L76.2413 24.7175H75.2305V17.2305ZM79.2046 22.0886C79.2046 21.1508 78.6819 20.3475 77.8171 20.3475C77.0369 20.3475 76.3258 20.9932 76.3258 22.0886C76.3258 23.1301 76.9831 23.8181 77.8171 23.8181C78.6819 23.8219 79.2046 23.0494 79.2046 22.0886Z" fill="white"/>
<path d="M81.2451 22.089C81.2451 20.5977 82.352 19.3179 83.9547 19.3179C85.5613 19.3179 86.6643 20.5977 86.6643 22.089C86.6643 23.5802 85.5805 24.8524 83.9547 24.8524C82.329 24.8524 81.2451 23.5802 81.2451 22.089ZM85.4575 22.089C85.4575 21.0551 84.7811 20.3479 83.9547 20.3479C83.1322 20.3479 82.4519 21.0551 82.4519 22.089C82.4519 23.1113 83.1207 23.8185 83.9547 23.8185C84.8003 23.8224 85.4575 23.1113 85.4575 22.089Z" fill="white"/>
<path d="M91.5693 24.0914C91.1926 24.5603 90.6507 24.8524 89.9627 24.8524C88.4407 24.8524 87.5029 23.5187 87.5029 22.0813C87.5029 20.6208 88.483 19.3179 89.9627 19.3179C90.6084 19.3179 91.1311 19.5792 91.5155 20.0058V19.4524L92.6839 19.5562V24.7179H91.673L91.5693 24.0914ZM91.5885 22.0698C91.5885 21.0359 90.9313 20.3479 90.0972 20.3479C89.2517 20.3479 88.7098 21.1089 88.7098 22.0774C88.7098 23.0037 89.2094 23.8185 90.0972 23.8185C90.8813 23.8224 91.5885 23.1728 91.5885 22.0698Z" fill="white"/>
<path d="M94.1936 20.2556H93.4941V19.4524H94.1936V18.2417L95.362 17.9727V19.4524H96.5727V20.2556H95.362V23.0613C95.362 23.5725 95.5388 23.8223 96.0193 23.8223C96.2499 23.8223 96.4882 23.7801 96.7303 23.707L96.9378 24.6986C96.615 24.8024 96.2921 24.8562 95.9693 24.8562C94.9162 24.8562 94.1975 24.3143 94.1975 23.1574V20.2556H94.1936Z" fill="white"/>
<path d="M97.9033 21.5278H99.8173V22.5271H97.9033V21.5278Z" fill="white"/>
<path d="M100.97 17.4922H103.503C105.87 17.4922 106.965 19.1487 106.965 21.1204C106.965 23.0805 105.87 24.7178 103.503 24.7178H100.97V17.4922ZM103.391 23.6532C105.132 23.6532 105.693 22.4233 105.693 21.1204C105.693 19.7944 105.132 18.5568 103.391 18.5568H102.18V23.6532H103.391Z" fill="white"/>
<path d="M112.427 24.4787C111.832 24.74 111.282 24.8553 110.625 24.8553C108.865 24.8553 107.873 23.6062 107.873 22.0919C107.873 20.5891 108.811 19.3208 110.356 19.3208C111.97 19.3208 112.773 20.5699 112.773 22.2802H109.041C109.114 23.1258 109.583 23.8253 110.656 23.8253C111.217 23.8253 111.69 23.7023 112.201 23.4909L112.427 24.4787ZM111.593 21.4731C111.428 20.5661 110.917 20.347 110.352 20.347C109.799 20.347 109.257 20.6391 109.08 21.4731H111.593Z" fill="white"/>
<path d="M113.784 19.4947L114.795 19.4524L114.887 20.0789C115.264 19.61 115.817 19.3179 116.501 19.3179C117.993 19.3179 118.961 20.6208 118.961 22.0813C118.961 23.5187 118.012 24.8524 116.501 24.8524C115.844 24.8524 115.325 24.6026 114.949 24.1644V27.0009H113.78V19.4947H113.784ZM117.754 22.0813C117.754 21.1204 117.232 20.3518 116.367 20.3518C115.533 20.3518 114.876 21.0397 114.876 22.0813C114.876 23.1767 115.587 23.8224 116.367 23.8224C117.235 23.8224 117.754 23.0191 117.754 22.0813Z" fill="white"/>
<path d="M119.799 22.089C119.799 20.5977 120.906 19.3179 122.508 19.3179C124.115 19.3179 125.218 20.5977 125.218 22.089C125.218 23.5802 124.134 24.8524 122.508 24.8524C120.883 24.8524 119.799 23.5802 119.799 22.089ZM124.011 22.089C124.011 21.0551 123.335 20.3479 122.508 20.3479C121.686 20.3479 121.006 21.0551 121.006 22.089C121.006 23.1113 121.674 23.8185 122.508 23.8185C123.354 23.8224 124.011 23.1113 124.011 22.089Z" fill="white"/>
<path d="M126.501 20.2556H125.802V19.4524H126.501V18.2417L127.67 17.9727V19.4524H128.88V20.2556H127.67V23.0613C127.67 23.5725 127.846 23.8223 128.327 23.8223C128.557 23.8223 128.796 23.7801 129.038 23.707L129.245 24.6986C128.923 24.8024 128.6 24.8562 128.277 24.8562C127.224 24.8562 126.505 24.3143 126.505 23.1574V20.2556H126.501Z" fill="white"/>
<path d="M130.391 23.7524C130.687 23.7524 130.925 23.983 130.925 24.279C130.925 24.5672 130.687 24.8055 130.391 24.8055C130.095 24.8055 129.864 24.5672 129.864 24.279C129.864 23.983 130.095 23.7524 130.391 23.7524Z" fill="white"/>
<path d="M134.85 24.5525C134.431 24.7524 134.027 24.81 133.62 24.81C132.417 24.81 131.69 23.9299 131.69 22.896C131.69 21.8621 132.409 20.9858 133.62 20.9858C134.043 20.9858 134.446 21.0781 134.865 21.2587L134.634 21.9083C134.304 21.7776 133.973 21.7007 133.631 21.7007C132.924 21.7007 132.524 22.2542 132.524 22.896C132.524 23.5456 132.928 24.099 133.631 24.099C133.97 24.099 134.292 24.0106 134.634 23.8761L134.85 24.5525Z" fill="white"/>
<path d="M135.368 22.9028C135.368 21.8728 136.133 20.9888 137.24 20.9888C138.347 20.9888 139.112 21.8766 139.112 22.9028C139.112 23.9328 138.362 24.813 137.24 24.813C136.118 24.813 135.368 23.9328 135.368 22.9028ZM138.278 22.9028C138.278 22.1918 137.809 21.6998 137.24 21.6998C136.671 21.6998 136.202 22.1918 136.202 22.9028C136.202 23.61 136.663 24.0981 137.24 24.0981C137.824 24.0981 138.278 23.6061 138.278 22.9028Z" fill="white"/>
<path d="M139.85 21.154L140.541 21.081L140.599 21.4923C140.845 21.1463 141.191 20.9888 141.598 20.9888C142.075 20.9888 142.432 21.2194 142.621 21.6152C142.874 21.1848 143.27 20.9888 143.731 20.9888C144.458 20.9888 144.919 21.5153 144.919 22.3724V24.7207H144.112V22.48C144.112 22.0265 143.954 21.7036 143.559 21.7036C143.132 21.7036 142.786 22.1303 142.786 23.0142V24.7207H141.979V22.48C141.979 22.0265 141.821 21.7036 141.425 21.7036C141.006 21.7036 140.657 22.1226 140.657 22.9643V24.7207H139.85V21.154Z" fill="white"/>
<path d="M19.0595 1.8916C19.0595 1.8916 24.4133 17.7611 19.4246 25.0482C17.8526 27.3465 7.22559 25.9091 7.22559 25.9091C7.22559 25.9091 13.1521 23.6261 16.7649 15.9585C20.151 8.76747 19.0595 1.8916 19.0595 1.8916Z" fill="white"/>
<path d="M6.35701 22.361C7.06804 22.5724 7.71374 22.6685 8.29794 22.6915C9.70078 22.7453 11.0421 22.092 11.9223 20.9927C16.1116 15.7465 17.4376 10.1697 16.5036 0C16.5036 0 10.6463 13.967 0 22.6262C2.09082 21.6999 3.559 21.5231 6.35701 22.361Z" fill="#F03445"/>
</svg>
