<svg width="51" height="47" viewBox="0 0 51 47" fill="none" xmlns="http://www.w3.org/2000/svg">
<path fill-rule="evenodd" clip-rule="evenodd" d="M47.6491 37.9061C46.9627 40.8868 43.3707 43.6165 39.5193 43.6463L11.4866 43.6457C7.5748 43.6373 3.72673 40.8899 3.26851 37.8096L47.6491 37.9063V37.9061ZM0.88283 35.0725C-1.26329 35.9057 0.649889 41.52 5.03542 44.5492C8.86529 47.1944 13.5396 46.4765 18.7392 46.4765C23.9725 46.4765 29.2056 46.4765 34.4389 46.4765C40.2829 46.4765 43.3808 46.8334 47.14 43.5435C48.346 42.4878 49.5786 41.0381 50.2938 38.9484C51.4818 35.4775 51.5013 34.9485 47.7258 34.972C41.0821 35.0135 1.69192 34.7583 0.882623 35.0725H0.88283Z" fill="#45CB85"/>
<path fill-rule="evenodd" clip-rule="evenodd" d="M25.3563 6.28685C25.9999 6.56215 32.3867 16.0226 33.4045 17.468C34.6193 19.1928 40.9296 27.8456 41.2761 29.0771L25.3211 28.9656L25.3565 6.28685H25.3563ZM22.548 1.85286V30.0354C22.548 31.8174 23.2106 32.0047 25.0191 32.0047H24.7777C30.9771 32.0047 37.1763 32.0047 43.3757 32.0047C47.803 32.0047 44.4837 28.343 43.3132 26.7011L28.9791 6.1314C28.4267 5.33525 25.2851 0.331721 24.4965 0.103238C23.0527 -0.314816 22.548 0.590377 22.548 1.85286Z" fill="#45CB85"/>
<path fill-rule="evenodd" clip-rule="evenodd" d="M16.665 15.8447L16.7049 28.9286C15.3848 29.2782 10.858 29.1184 9.30936 29.0414C9.5032 28.0773 15.7949 16.728 16.6652 15.8447H16.665ZM7.3875 32.0048C10.3338 32.0048 17.4795 32.3752 19.2457 31.5389C19.9735 27.1581 19.5269 15.9394 19.5192 10.842C19.5192 8.47808 18.0368 8.05108 16.925 9.50251L7.51617 26.0347C6.66033 27.504 3.20118 32.0048 7.38729 32.0048H7.3875Z" fill="#45CB85"/>
</svg>
