<svg width="100" height="100" viewBox="0 0 100 100" fill="none" xmlns="http://www.w3.org/2000/svg">
<rect width="100" height="100" rx="20" fill="#173652"/>
<path d="M76.8257 13C76.8257 13 94.3912 65.5491 78.0236 89.6792C72.8662 97.2899 38 92.53 38 92.53C38 92.53 57.4444 84.9703 69.2976 59.5802C80.4069 35.7683 76.8257 13 76.8257 13Z" fill="white"/>
<path d="M34.8265 80.8975C37.156 81.5961 39.2714 81.9136 41.1853 81.9898C45.7812 82.1676 50.1757 80.0084 53.0592 76.3757C66.784 59.0381 71.1282 40.6082 68.0684 7C68.0684 7 48.8788 53.1573 14 81.7739C20.8498 78.7128 25.6598 78.1285 34.8265 80.8975Z" fill="#F03445"/>
</svg>
