<svg width="53" height="53" viewBox="0 0 53 53" fill="none" xmlns="http://www.w3.org/2000/svg">
<g clip-path="url(#clip0_18_1313)">
<path d="M26 7C26.5523 7 27 6.51486 27 5.91643V1.08357C27 0.485137 26.5523 0 26 0C25.4477 0 25 0.485137 25 1.08357V5.91643C25.0001 6.51486 25.4478 7 26 7Z" fill="#1AB5E6"/>
<path d="M51.9793 36.0064L50.1312 34.1904C49.4737 33.5434 48.5975 33.187 47.6639 33.187C47.0669 33.187 46.4938 33.3333 45.9859 33.6076L42.5033 30.1799L42.6729 30.0129C44.0858 28.6179 44.0853 26.3511 42.6728 24.9608C42.1681 24.4625 41.5383 24.1302 40.8517 23.9904C40.9463 23.6689 40.996 23.3321 40.996 22.9875C40.996 22.0299 40.6185 21.1319 39.9352 20.4614C39.4304 19.9631 38.8007 19.6308 38.1141 19.491C38.2087 19.1695 38.2584 18.8328 38.2584 18.488C38.2584 17.5303 37.8809 16.6325 37.1965 15.9609C36.6796 15.4522 36.0441 15.1301 35.3769 14.9931C35.7339 13.7804 35.4289 12.416 34.4607 11.4603C33.6548 10.6696 32.5613 10.3298 31.5075 10.4399L24.6063 9.15269C23.5538 8.95594 22.2394 8.82584 21.4098 9.57155C21.3574 9.61864 21.304 9.67279 21.2514 9.73308C19.965 9.27102 18.4646 9.54617 17.4344 10.5602C16.751 11.2328 16.3746 12.1303 16.3746 13.0874C16.3746 13.4321 16.4241 13.7688 16.5185 14.0904C15.8327 14.2302 15.2037 14.562 14.7007 15.0587C14.0159 15.7307 13.6383 16.6272 13.6376 17.5831C13.6373 17.9287 13.687 18.2665 13.782 18.589C13.0958 18.7284 12.4664 19.0596 11.9618 19.5563C11.277 20.2303 10.9 21.1284 10.9 22.0849C10.9 22.8176 11.1219 23.5157 11.5333 24.1053C11.0139 24.2788 10.5382 24.5675 10.1398 24.9597C8.72599 26.3511 8.72547 28.618 10.1407 30.0151L10.3097 30.1809L6.82668 33.6068C5.53225 33.0063 3.93741 33.2313 2.86923 34.2825L1.01998 36.0997C0.362224 36.747 0.000103878 37.6105 0 38.5311C0 39.4517 0.362224 40.3154 1.01998 40.9628L3.32785 43.2342C3.73661 43.6366 4.39904 43.6362 4.80728 43.2334C5.21563 42.8306 5.21521 42.1778 4.80645 41.7756L2.49859 39.5041C2.23661 39.2463 2.09232 38.9007 2.09232 38.5312C2.09232 38.1618 2.23661 37.8163 2.49796 37.5591L4.34731 35.7418C4.80936 35.287 5.51657 35.2193 6.05362 35.5357C6.09143 35.5916 6.13516 35.6449 6.18523 35.6943C6.27488 35.7829 6.3772 35.8507 6.48586 35.9004L17.0911 46.3355C17.1415 46.4437 17.2107 46.5455 17.3009 46.6346C17.3888 46.7213 17.4891 46.7883 17.5954 46.8377C17.8197 47.0876 17.9436 47.4067 17.9436 47.7472C17.9436 48.1167 17.7994 48.4622 17.5374 48.72L15.6899 50.5384C15.144 51.074 14.2561 51.0738 13.7118 50.54L11.404 48.2656C10.9954 47.863 10.3331 47.863 9.92454 48.2656C9.51599 48.6682 9.51599 49.3209 9.92454 49.7235L12.2341 51.9995C12.9139 52.6666 13.8066 53 14.6997 53C15.5931 53 16.4869 52.6661 17.1675 51.9984L19.0161 50.1789C19.6738 49.5315 20.0361 48.6679 20.0361 47.7472C20.0361 47.0901 19.8506 46.4626 19.5059 45.9215L23.4258 42.0635C23.43 42.0593 23.4341 42.0551 23.4384 42.0509C23.8873 41.5937 25.1372 41.6792 26.3461 41.7619C27.2049 41.8208 28.1625 41.8862 29.098 41.78L33.3907 46.005C33.1126 46.5046 32.9641 47.0686 32.9641 47.656C32.9641 48.5757 33.3264 49.4387 33.9841 50.0862L35.8329 51.9056C36.4902 52.5527 37.3664 52.9091 38.3001 52.9091C39.2336 52.9091 40.1098 52.5528 40.7673 51.9056L51.98 40.87C52.6378 40.2226 53 39.3591 53 38.4384C52.9999 37.5179 52.6377 36.6544 51.9793 36.0064ZM24.2168 11.1784L28.7549 12.0249L26.0386 14.7005C25.6184 14.5015 25.0425 14.1304 24.4107 13.5348C23.5459 12.7196 22.9273 11.7784 22.871 11.1913C22.8709 11.191 22.8709 11.1907 22.8709 11.1904C22.8709 11.1903 22.8708 11.1902 22.8708 11.1901C22.8668 11.1479 22.8657 11.1143 22.8662 11.0886C23.003 11.0558 23.3664 11.0195 24.2168 11.1784ZM18.9129 12.0189C19.4429 11.4972 20.2663 11.437 20.8651 11.8366C21.2045 13.2388 22.4183 14.5096 22.9644 15.0245C23.3691 15.4061 24.6677 16.5502 25.9784 16.8647C26.1557 17.1151 26.2523 17.4137 26.2523 17.7288C26.2523 18.1347 26.0938 18.5141 25.8052 18.7983C25.5173 19.0824 25.1316 19.2389 24.719 19.2389C24.3063 19.2389 23.9206 19.0824 23.6314 18.797L23.6313 18.7969L23.6308 18.7963L18.9128 14.1556C18.6252 13.8726 18.4668 13.4932 18.4668 13.0874C18.4669 12.6815 18.6253 12.3021 18.9129 12.0189ZM16.1793 16.5175C16.4671 16.2334 16.8524 16.0769 17.2644 16.0769C17.6769 16.0769 18.0634 16.2337 18.3531 16.5189L22.1522 20.255C22.7504 20.8454 22.7504 21.8062 22.1542 22.3946C21.8648 22.6786 21.4778 22.835 21.0645 22.835C20.6511 22.835 20.2641 22.6786 19.9759 22.3958L19.9758 22.3957L17.0937 19.5563C17.0892 19.5519 17.0844 19.5478 17.0798 19.5433L16.1781 18.6552C15.8888 18.3704 15.7296 17.9902 15.7299 17.5847C15.7303 17.1805 15.889 16.8022 16.1793 16.5175ZM13.4404 21.015C13.7285 20.7316 14.1146 20.5755 14.5278 20.5755C14.9376 20.5755 15.3204 20.7294 15.6072 21.0079L18.4981 23.8553C18.7864 24.1382 18.9452 24.5173 18.9452 24.9226C18.9452 25.3279 18.7864 25.7069 18.497 25.991C18.2091 26.2743 17.8234 26.4304 17.4109 26.4304C16.9977 26.4304 16.6108 26.2739 16.3224 25.991L15.2744 24.9595C15.2742 24.9592 15.2739 24.959 15.2737 24.9588L13.4405 23.1545C13.1515 22.8701 12.9924 22.4901 12.9924 22.0847C12.9924 21.6795 13.1515 21.2994 13.4404 21.015ZM11.6184 26.4183C11.9077 26.1336 12.2943 25.9768 12.707 25.9768C13.1196 25.9768 13.5062 26.1335 13.7954 26.418L14.8448 27.451C15.1332 27.7339 15.2919 28.113 15.2919 28.5183C15.2919 28.9237 15.1331 29.3026 14.8427 29.5878C14.5548 29.8718 14.1691 30.0284 13.7565 30.0284C13.3438 30.0284 12.9581 29.8719 12.6682 29.5857L12.5368 29.4568C12.535 29.455 12.5337 29.4532 12.532 29.4515C12.53 29.4497 12.5279 29.4481 12.526 29.4462L11.6194 28.5564C11.0212 27.9657 11.0207 27.0066 11.6184 26.4183ZM32.9378 38.1345C32.5294 37.7316 31.867 37.7313 31.4583 38.1336L30.5276 39.0497C29.6432 39.9212 28.0406 39.8114 26.4909 39.7055C24.8079 39.5902 23.0677 39.4713 21.9415 40.6106L18.0881 44.4031L8.45207 34.9216L11.8622 31.5673C12.4258 31.9077 13.0762 32.0902 13.7567 32.0902C14.7289 32.0902 15.6406 31.7189 16.3215 31.0467C17.007 30.3739 17.3846 29.4761 17.3846 28.5184C17.3846 28.5095 17.3839 28.5007 17.3839 28.4918C17.393 28.4919 17.402 28.4924 17.4111 28.4924C18.3819 28.4924 19.2928 28.1222 19.9747 27.4511C20.6602 26.7784 21.0378 25.8804 21.0378 24.9228C21.0378 24.9139 21.0371 24.9051 21.0371 24.8962C21.0463 24.8962 21.0554 24.8968 21.0647 24.8968C22.0352 24.8968 22.9466 24.527 23.6331 23.8534C24.3457 23.15 24.6981 22.224 24.6914 21.3C24.7007 21.3001 24.7101 21.3006 24.7194 21.3006C25.6916 21.3005 26.6032 20.9293 27.2851 20.256C27.9685 19.5834 28.345 18.6859 28.345 17.7288C28.345 17.0595 28.1603 16.4196 27.8159 15.8653L30.8048 12.9213C31.0275 12.7027 31.3022 12.5655 31.59 12.5089C31.6212 12.5057 31.652 12.5008 31.6824 12.4948C32.1442 12.4321 32.6292 12.5725 32.9824 12.9191C33.5807 13.5096 33.5807 14.4704 32.9846 15.0588L32.0743 15.9521C32.0713 15.9551 32.0681 15.9577 32.0651 15.9607L31.0166 16.9921C30.6078 17.3944 30.6074 18.0472 31.0157 18.4499C31.4241 18.8528 32.0865 18.8532 32.4951 18.4509L33.4091 17.5515C33.4093 17.5513 33.4095 17.5511 33.4097 17.5509L33.5478 17.4153C34.1477 16.8296 35.1196 16.8308 35.7189 17.4205C36.0073 17.7034 36.1661 18.0825 36.1661 18.4878C36.1661 18.8931 36.0073 19.2721 35.7166 19.5573L34.8011 20.4613C34.801 20.4614 34.8009 20.4615 34.8008 20.4617L33.7525 21.4905C33.3431 21.8923 33.3417 22.5451 33.7495 22.9484C34.1572 23.3518 34.8195 23.353 35.2289 22.9513L36.282 21.9178C36.5699 21.6336 36.9556 21.4772 37.3682 21.4772C37.7809 21.4772 38.1667 21.6336 38.4566 21.9198C38.745 22.2029 38.9037 22.5819 38.9037 22.9873C38.9037 23.3925 38.745 23.7716 38.4549 24.0561L36.6298 25.8554C36.2214 26.258 36.2215 26.9107 36.63 27.3132C36.8343 27.5144 37.1019 27.615 37.3696 27.615C37.6374 27.615 37.9052 27.5142 38.1095 27.3129L39.0039 26.4311C39.009 26.4263 39.0145 26.4221 39.0196 26.4171C39.3075 26.133 39.6932 25.9766 40.1058 25.9766C40.5185 25.9766 40.9042 26.133 41.1931 26.4181C41.7907 27.0064 41.7902 27.9656 41.1931 28.555L40.2836 29.4501C40.2833 29.4504 40.2829 29.4507 40.2826 29.451C40.2823 29.4513 40.282 29.4518 40.2817 29.4521L38.8382 30.8727C38.4294 31.2751 38.429 31.9279 38.8372 32.3307C39.0415 32.5322 39.3096 32.6331 39.5775 32.6331C39.8449 32.6331 40.1125 32.5325 40.3168 32.3316L41.0228 31.6367L44.4069 34.9674L34.7716 44.4505L31.3193 41.0527C31.56 40.9002 31.7903 40.7208 32.0065 40.5078L32.9367 39.5923C33.3457 39.1901 33.3461 38.5373 32.9378 38.1345ZM50.5013 39.4112L39.2886 50.4469C39.0263 50.705 38.6752 50.8472 38.3 50.8472C37.9248 50.8472 37.5736 50.705 37.3112 50.4468L35.4625 48.6273C35.2005 48.3695 35.0563 48.0246 35.0563 47.656C35.0563 47.2875 35.2005 46.9425 35.4625 46.6847L46.6753 35.649C46.9377 35.3907 47.2887 35.2485 47.664 35.2485C48.0392 35.2485 48.3903 35.3907 48.6533 35.6496L50.5014 37.4656C50.7634 37.7234 50.9077 38.0688 50.9077 38.4383C50.9076 38.808 50.7633 39.1534 50.5013 39.4112Z" fill="#1AB5E6"/>
<path d="M12.186 5.68905C12.3935 5.89642 12.6652 6 12.9369 6C13.2093 6 13.4817 5.89578 13.6894 5.68746C14.1041 5.27134 14.1035 4.59743 13.6879 4.18215L9.81403 0.311074C9.39854 -0.104202 8.72539 -0.103673 8.31064 0.312554C7.89589 0.728675 7.89652 1.40259 8.31212 1.81786L12.186 5.68905Z" fill="#1AB5E6"/>
<path d="M39.0636 6C39.3355 6 39.6076 5.89621 39.8152 5.68873L43.688 1.81752C44.1036 1.40213 44.1041 0.728111 43.6889 0.312199C43.2738 -0.103714 42.6005 -0.104136 42.1848 0.311353L38.312 4.18256C37.8964 4.59795 37.8959 5.27197 38.3111 5.68788C38.5188 5.896 38.7912 6 39.0636 6Z" fill="#1AB5E6"/>
<path d="M6.28678 45.2986C5.89976 45.692 5.90512 46.3246 6.29889 46.7114L6.30176 46.7141C6.49602 46.905 6.74824 47 7.00036 47C7.25913 47 7.5179 46.8999 7.71394 46.7006C8.10096 46.3072 8.09411 45.6733 7.70044 45.2865C7.30688 44.8998 6.67399 44.9052 6.28678 45.2986Z" fill="#1AB5E6"/>
<path d="M35.0007 36C35.1525 36 35.3065 35.9654 35.4511 35.8924C35.9433 35.6438 36.1411 35.0426 35.8929 34.5497C35.6446 34.0568 35.0443 33.8587 34.5522 34.1073L34.5467 34.1101C34.0545 34.3587 33.8595 34.9585 34.1077 35.4514C34.2829 35.7996 34.6354 36 35.0007 36Z" fill="#1AB5E6"/>
</g>
<defs>
<clipPath id="clip0_18_1313">
<rect width="53" height="53" fill="white"/>
</clipPath>
</defs>
</svg>
