<svg width="17" height="17" viewBox="0 0 17 17" fill="none" xmlns="http://www.w3.org/2000/svg">
<path d="M12.325 0.566895C10.846 0.566895 9.4265 1.25539 8.5 2.34339C7.5735 1.25539 6.154 0.566895 4.675 0.566895C2.057 0.566895 0 2.62389 0 5.24189C0 8.45489 2.89 11.0729 7.2675 15.0509L8.5 16.1644L9.7325 15.0424C14.11 11.0729 17 8.45489 17 5.24189C17 2.62389 14.943 0.566895 12.325 0.566895ZM8.585 13.7844L8.5 13.8694L8.415 13.7844C4.369 10.1209 1.7 7.69839 1.7 5.24189C1.7 3.54189 2.975 2.26689 4.675 2.26689C5.984 2.26689 7.259 3.10839 7.7095 4.27289H9.299C9.741 3.10839 11.016 2.26689 12.325 2.26689C14.025 2.26689 15.3 3.54189 15.3 5.24189C15.3 7.69839 12.631 10.1209 8.585 13.7844Z" fill="#173652"/>
</svg>
