<svg width="48" height="48" viewBox="0 0 48 48" fill="none" xmlns="http://www.w3.org/2000/svg">
<circle cx="24" cy="24" r="24" transform="matrix(-1 0 0 1 48 0)" fill="#173652"/>
<path d="M21.7084 9.90149C22.2511 9.38453 23.1101 9.40542 23.6271 9.94815C24.144 10.4909 24.1231 11.3499 23.5804 11.8669L12.2683 22.6419L38.9301 22.6419C39.6796 22.6419 40.2872 23.2495 40.2872 23.999C40.2872 24.7486 39.6796 25.3562 38.9301 25.3562L12.2682 25.3562L23.5804 36.1314C24.1231 36.6483 24.144 37.5074 23.6271 38.0501C23.1101 38.5928 22.2511 38.6137 21.7084 38.0967L8.28362 25.3094C7.97795 25.0182 7.79708 24.6468 7.74102 24.2607C7.72449 24.176 7.71582 24.0885 7.71582 23.999C7.71582 23.9093 7.72452 23.8217 7.74112 23.7369C7.79729 23.351 7.97812 22.9799 8.28362 22.6889L21.7084 9.90149Z" fill="white"/>
</svg>
