<svg width="53" height="53" viewBox="0 0 53 53" fill="none" xmlns="http://www.w3.org/2000/svg">
<path d="M3.20898 51.4473C3.20898 52.3049 3.90408 53 4.76172 53H14.0781C15.571 53 16.9014 52.2932 17.7545 51.1974C21.5393 52.3931 25.4681 53 29.4421 53H42.0273C44.5958 53 46.6855 50.9103 46.6855 48.3418C46.6855 47.7357 46.5679 47.1566 46.3564 46.6249C48.3329 46.0863 49.791 44.276 49.791 42.1309C49.791 40.9388 49.3402 39.8503 48.601 39.0254C49.3406 38.2005 49.791 37.112 49.791 35.9199C49.791 34.7279 49.3402 33.6393 48.601 32.8145C49.3406 31.9896 49.791 30.901 49.791 29.709C49.791 27.1405 47.7013 25.0508 45.1328 25.0508H36.6336C36.7541 24.7653 36.8787 24.4758 37.0056 24.1814C37.9478 21.9967 38.9219 19.7375 38.9219 17.2871C38.9219 12.9953 35.4505 9.41992 31.1582 9.41992C30.4182 9.41992 29.781 9.94235 29.6358 10.6682L28.8428 14.6329C27.8012 19.8402 26.6508 20.4298 22.3707 22.623C21.2393 23.2025 19.9102 23.8838 18.3591 24.7681C17.645 23.1099 15.9952 21.9453 14.0781 21.9453H4.76172C3.90408 21.9453 3.20898 22.6404 3.20898 23.498V51.4473ZM23.7864 25.3868C26.1041 24.1992 27.7782 23.3416 29.0891 21.8895C30.4296 20.4043 31.2407 18.4783 31.8881 15.2419L32.3955 12.7033C34.3429 13.2735 35.8164 15.142 35.8164 17.2871C35.8164 19.0962 34.9713 21.0561 34.1537 22.9518C33.8573 23.6396 33.5548 24.3428 33.2855 25.0508H31.1582C30.3006 25.0508 29.6055 25.7459 29.6055 26.6035C29.6055 27.4612 30.3006 28.1562 31.1582 28.1562H45.1328C45.9888 28.1562 46.6855 28.853 46.6855 29.709C46.6855 30.565 45.9888 31.2617 45.1328 31.2617H42.0273C41.1697 31.2617 40.4746 31.9568 40.4746 32.8145C40.4746 33.6721 41.1697 34.3672 42.0273 34.3672H45.1328C45.9888 34.3672 46.6855 35.0639 46.6855 35.9199C46.6855 36.7759 45.9888 37.4727 45.1328 37.4727H42.0273C41.1697 37.4727 40.4746 38.1677 40.4746 39.0254C40.4746 39.883 41.1697 40.5781 42.0273 40.5781H45.1328C45.9888 40.5781 46.6855 41.2748 46.6855 42.1309C46.6855 42.9869 45.9888 43.6836 45.1328 43.6836H42.0273C41.1697 43.6836 40.4746 44.3787 40.4746 45.2363C40.4746 46.094 41.1697 46.7891 42.0273 46.7891C42.8834 46.7891 43.5801 47.4858 43.5801 48.3418C43.5801 49.1978 42.8834 49.8945 42.0273 49.8945H29.4421C25.8025 49.8945 22.2041 49.3414 18.7363 48.2512V28.1429C20.7383 26.9492 22.4128 26.0908 23.7864 25.3868ZM6.31445 25.0508H14.0781C14.9342 25.0508 15.6309 25.7475 15.6309 26.6035V48.3418C15.6309 49.1978 14.9342 49.8945 14.0781 49.8945H6.31445V25.0508Z" fill="#F44236"/>
<path d="M12.5254 45.2363C12.5254 46.094 11.8303 46.7891 10.9727 46.7891C10.115 46.7891 9.41992 46.094 9.41992 45.2363C9.41992 44.3787 10.115 43.6836 10.9727 43.6836C11.8303 43.6836 12.5254 44.3787 12.5254 45.2363Z" fill="#F44236"/>
<path d="M31.1582 1.55273V4.76172C31.1582 5.61936 31.8533 6.31445 32.7109 6.31445C33.5686 6.31445 34.2637 5.61936 34.2637 4.76172V1.55273C34.2637 0.695091 33.5686 0 32.7109 0C31.8533 0 31.1582 0.695091 31.1582 1.55273Z" fill="#F44236"/>
<path d="M40.9295 4.11836L38.7335 6.31442C38.1269 6.92096 38.1269 7.90396 38.7335 8.51049C39.34 9.11662 40.323 9.11662 40.9295 8.51049L43.1252 6.31442C43.7317 5.70789 43.7317 4.72489 43.1252 4.11836C42.5187 3.51222 41.5357 3.51222 40.9295 4.11836Z" fill="#F44236"/>
<path d="M22.2967 4.11836C21.6902 4.72489 21.6902 5.70789 22.2967 6.31442L24.4924 8.51049C25.0989 9.11662 26.0819 9.11662 26.6884 8.51049C27.2946 7.90396 27.2946 6.92096 26.6884 6.31442L24.4924 4.11836C23.8862 3.51222 22.9028 3.51222 22.2967 4.11836Z" fill="#F44236"/>
</svg>
