<svg width="22" height="27" viewBox="0 0 22 27" fill="none" xmlns="http://www.w3.org/2000/svg">
<path d="M19.0595 1.89087C19.0595 1.89087 24.4133 17.7603 19.4246 25.0475C17.8526 27.3458 7.22559 25.9084 7.22559 25.9084C7.22559 25.9084 13.1521 23.6254 16.7649 15.9578C20.151 8.76674 19.0595 1.89087 19.0595 1.89087Z" fill="white"/>
<path d="M6.35701 22.361C7.06804 22.5724 7.71374 22.6685 8.29794 22.6915C9.70078 22.7453 11.0421 22.092 11.9223 20.9927C16.1116 15.7465 17.4376 10.1697 16.5036 0C16.5036 0 10.6463 13.967 0 22.6262C2.09082 21.6999 3.559 21.5231 6.35701 22.361Z" fill="#F03445"/>
</svg>
