<svg width="19" height="19" viewBox="0 0 19 19" fill="none" xmlns="http://www.w3.org/2000/svg">
<g clip-path="url(#clip0_70_18568)">
<path d="M7.91602 3.95833C7.91602 3.53841 8.08283 3.13568 8.37976 2.83875C8.6767 2.54181 9.07942 2.375 9.49935 2.375C9.91927 2.375 10.322 2.54181 10.6189 2.83875C10.9159 3.13568 11.0827 3.53841 11.0827 3.95833C11.9918 4.38823 12.7669 5.05742 13.3247 5.8942C13.8826 6.73097 14.2022 7.70377 14.2493 8.70833V11.0833C14.3089 11.5755 14.4832 12.0468 14.7582 12.4593C15.0332 12.8719 15.4013 13.214 15.8327 13.4583H3.16602C3.59743 13.214 3.96545 12.8719 4.24046 12.4593C4.51546 12.0468 4.68977 11.5755 4.74935 11.0833V8.70833C4.7965 7.70377 5.11613 6.73097 5.67398 5.8942C6.23182 5.05742 7.00686 4.38823 7.91602 3.95833" stroke="#173652" stroke-width="1.58333" stroke-linecap="round" stroke-linejoin="round"/>
<path d="M7.125 13.4585V14.2502C7.125 14.8801 7.37522 15.4841 7.82062 15.9295C8.26602 16.3749 8.87011 16.6252 9.5 16.6252C10.1299 16.6252 10.734 16.3749 11.1794 15.9295C11.6248 15.4841 11.875 14.8801 11.875 14.2502V13.4585" stroke="#173652" stroke-width="1.58333" stroke-linecap="round" stroke-linejoin="round"/>
<path d="M7.91602 8.7085H11.0827" stroke="#173652" stroke-width="1.58333" stroke-linecap="round" stroke-linejoin="round"/>
<path d="M9.5 7.125V10.2917" stroke="#173652" stroke-width="1.58333" stroke-linecap="round" stroke-linejoin="round"/>
</g>
<defs>
<clipPath id="clip0_70_18568">
<rect width="19" height="19" fill="white"/>
</clipPath>
</defs>
</svg>
