<svg width="48" height="48" viewBox="0 0 48 48" fill="none" xmlns="http://www.w3.org/2000/svg">
<circle cx="24" cy="24" r="24" fill="#173652"/>
<path d="M26.2916 9.90149C25.7489 9.38453 24.8899 9.40542 24.3729 9.94815C23.856 10.4909 23.8769 11.3499 24.4196 11.8669L35.7317 22.6419L9.06989 22.6419C8.32037 22.6419 7.71275 23.2495 7.71275 23.999C7.71275 24.7486 8.32037 25.3562 9.06989 25.3562L35.7318 25.3562L24.4196 36.1314C23.8769 36.6483 23.856 37.5074 24.3729 38.0501C24.8899 38.5928 25.7489 38.6137 26.2916 38.0967L39.7164 25.3094C40.0221 25.0182 40.2029 24.6468 40.259 24.2607C40.2755 24.176 40.2842 24.0885 40.2842 23.999C40.2842 23.9093 40.2755 23.8217 40.2589 23.7369C40.2027 23.351 40.0219 22.9799 39.7164 22.6889L26.2916 9.90149Z" fill="white"/>
</svg>
